<svg width="20" height="20" viewBox="0 0 20 20" fill="none" xmlns="http://www.w3.org/2000/svg">
<path fill-rule="evenodd" clip-rule="evenodd" d="M5.71105 6.66667C5.71105 4.36548 7.57653 2.5 9.87772 2.5C12.1789 2.5 14.0444 4.36548 14.0444 6.66667C14.0444 8.96785 12.1789 10.8333 9.87772 10.8333C7.57653 10.8333 5.71105 8.96785 5.71105 6.66667ZM9.87772 9.16667C8.497 9.16667 7.37772 8.04738 7.37772 6.66667C7.37772 5.28595 8.497 4.16667 9.87772 4.16667C11.2584 4.16667 12.3777 5.28595 12.3777 6.66667C12.3777 8.04738 11.2584 9.16667 9.87772 9.16667Z" fill="black"/>
<path d="M4.16666 10.1079C5.21013 11.8359 7.01574 13.052 9.11783 13.2905V15H7.37772V16.6667H12.3777V15H10.7845V13.2722C14.0374 12.8298 16.5444 10.041 16.5444 6.66667C16.5444 5.36365 16.1705 4.14793 15.5243 3.12093L14.1044 3.99438C14.5942 4.76736 14.8777 5.68391 14.8777 6.66667C14.8777 9.42809 12.6391 11.6667 9.87769 11.6667C8.05509 11.6667 6.46025 10.6915 5.5865 9.2344L4.16666 10.1079Z" fill="black"/>
</svg>
